<svg xmlns="http://www.w3.org/2000/svg" id="Laag_1" viewBox="0 0 510.94 832"><defs><clipPath id="clippath"><path d="M-1.06 0h512v832h-512z" style="fill:none"/></clipPath><style>.st0{fill:#fff}</style></defs><g style="clip-path:url(#clippath)"><path d="M-1.06 0h512v832h-512z" style="fill:#8e8e8e"/><path d="M59.71 42.44h74.1v748.95h-74.1z" style="fill:#d62e39"/><path d="M161.59 88.99V59.74h10.21c3.4 0 6.13.77 8.17 2.32s3.06 3.75 3.06 6.59c0 2.23-.53 4.05-1.6 5.48-1.07 1.42-2.49 2.48-4.27 3.18s-3.75 1.04-5.92 1.04h-3.3v10.63h-6.36Zm6.36-15.51h2.55c1.08 0 2.08-.14 2.99-.42s1.64-.75 2.18-1.42.81-1.57.81-2.72c0-1.49-.52-2.58-1.56-3.3-1.04-.71-2.33-1.07-3.88-1.07h-3.11v8.91ZM200.63 89.45c-2.75 0-5.22-.59-7.4-1.76q-3.27-1.77-5.13-5.13t-1.86-8.19c0-4.83.63-5.83 1.9-8.1q1.905-3.405 5.22-5.25c2.21-1.22 4.7-1.83 7.45-1.83s5.26.6 7.43 1.79 3.87 2.92 5.11 5.18q1.86 3.39 1.86 8.22c0 4.83-.63 5.82-1.9 8.08s-3 3.99-5.2 5.2-4.69 1.81-7.47 1.81Zm.19-4.82c1.42 0 2.72-.37 3.88-1.11s2.08-1.87 2.76-3.39q1.02-2.28 1.02-5.76c0-3.48-.36-4.34-1.07-5.87s-1.66-2.66-2.83-3.39c-1.18-.73-2.49-1.09-3.95-1.09s-2.72.38-3.88 1.14-2.08 1.9-2.76 3.44c-.68 1.53-1.02 3.46-1.02 5.78s.36 4.24 1.07 5.76q1.065 2.28 2.85 3.39c1.785 1.11 2.5 1.11 3.92 1.11ZM220.32 88.99V59.74h5.8l8.12 11.98c.99 1.46 1.95 2.97 2.88 4.55s1.64 3 2.14 4.27h.09c-.12-1.64-.2-3.3-.23-4.99s-.05-3.37-.05-5.04V59.74h5.94v29.25h-5.8l-8.4-12.07c-.96-1.39-1.84-2.83-2.65-4.32s-1.52-3.03-2.14-4.64h-.09c.15 1.76.24 3.48.26 5.15s.02 3.37.02 5.11v10.77h-5.9ZM256.8 88.99V64.76h-8.12v-5.01h22.75v5.01h-8.26v24.23h-6.36ZM287.17 89.45c-2.75 0-5.22-.59-7.4-1.76q-3.27-1.77-5.13-5.13t-1.86-8.19c0-4.83.63-5.83 1.9-8.1q1.905-3.405 5.22-5.25c2.21-1.22 4.7-1.83 7.45-1.83s5.26.6 7.43 1.79 3.87 2.92 5.11 5.18q1.86 3.39 1.86 8.22c0 4.83-.63 5.82-1.9 8.08s-3 3.99-5.2 5.2-4.69 1.81-7.47 1.81Zm.18-4.82c1.42 0 2.72-.37 3.88-1.11s2.08-1.87 2.76-3.39q1.02-2.28 1.02-5.76c0-3.48-.36-4.34-1.07-5.87s-1.66-2.66-2.83-3.39c-1.18-.73-2.49-1.09-3.95-1.09s-2.72.38-3.88 1.14-2.08 1.9-2.76 3.44c-.68 1.53-1.02 3.46-1.02 5.78s.36 4.24 1.07 5.76q1.065 2.28 2.85 3.39c1.785 1.11 2.5 1.11 3.92 1.11ZM306.85 88.99V59.74h5.8l8.12 11.98c.99 1.46 1.95 2.97 2.88 4.55s1.64 3 2.14 4.27h.09c-.12-1.64-.2-3.3-.23-4.99s-.05-3.37-.05-5.04V59.74h5.94v29.25h-5.8l-8.4-12.07c-.96-1.39-1.84-2.83-2.65-4.32s-1.52-3.03-2.14-4.64h-.09c.15 1.76.24 3.48.26 5.15s.02 3.37.02 5.11v10.77h-5.9ZM166.93 156.99v-24.23h-8.12v-5.01h22.75v5.01h-8.26v24.23h-6.36ZM185.22 156.99v-29.25h6.36v11.61h11.1v-11.61h6.36v29.25h-6.36v-12.63h-11.1v12.63zM215.49 156.99v-29.25h19.03v4.92h-12.67v6.69h11.47v4.87h-11.47v7.85h12.81v4.92zM250.21 156.99v-29.25h6.36v24.23h11.79v5.01h-18.15ZM269.43 156.99l10.91-29.25h6.59l10.82 29.25h-6.73l-2.27-6.73h-10.4l-2.27 6.73h-6.64Zm10.35-11.42h7.43l-1.35-3.9c-.4-1.18-.8-2.41-1.18-3.71-.39-1.3-.75-2.52-1.09-3.67h-.09c-.31 1.15-.67 2.34-1.09 3.6s-.84 2.51-1.28 3.78zM301.65 156.99v-29.25h6.36V140l10.03-12.26h7.89l-10.91 12.72 11.84 16.53h-7.8l-8.68-12.53-2.37 2.6v9.93zM330.06 156.99v-29.25h19.03v4.92h-12.67v6.69h11.47v4.87h-11.47v7.85h12.81v4.92zM166.93 224.99v-24.23h-8.12v-5.01h22.75v5.01h-8.26v24.23h-6.36ZM185.22 224.99v-29.25h6.36v11.61h11.1v-11.61h6.36v29.25h-6.36v-12.63h-11.1v12.63zM215.49 224.99v-29.25h19.03v4.92h-12.67v6.69h11.47v4.87h-11.47v7.85h12.81v4.92zM263.95 225.45c-2.94 0-5.55-.61-7.82-1.83s-4.06-2.96-5.36-5.22-1.95-4.95-1.95-8.08.63-5.77 1.88-8.03 3.02-4.01 5.32-5.25c2.29-1.24 4.98-1.86 8.08-1.86 2.01 0 3.66.19 4.94.56s2.33.77 3.13 1.21l-1.44 4.69c-.81-.43-1.7-.8-2.69-1.09s-2.09-.44-3.3-.44c-1.67 0-3.2.34-4.6 1.02-1.39.68-2.51 1.76-3.34 3.25-.84 1.49-1.25 3.45-1.25 5.9s.4 4.29 1.21 5.8c.8 1.52 1.9 2.64 3.27 3.37 1.38.73 2.92 1.09 4.62 1.09 1.42 0 2.62-.12 3.6-.37s1.83-.57 2.58-.97l1.25 4.64c-.74.4-1.79.77-3.13 1.11-1.35.34-3.01.51-4.99.51ZM276.53 224.99v-29.25h6.36v24.23h11.79v5.01h-18.15ZM309.54 225.45c-3.84 0-6.85-1.01-9.03-3.02s-3.27-5.14-3.27-9.38v-17.32h6.36v17.5c0 2.41.48 4.24 1.44 5.48q1.44 1.86 4.5 1.86c3.06 0 3.47-.63 4.39-1.9.91-1.27 1.37-2.89 1.37-4.87v-18.06h6.36v17.55c0 8.11-4.04 12.16-12.12 12.16M328.02 224.99v-29.25h10.45c3.06 0 5.49.67 7.29 2.02s2.69 3.21 2.69 5.59c0 1.18-.26 2.2-.79 3.06-.53.87-1.2 1.55-2.02 2.07-.82.51-1.66.88-2.53 1.09 1.7.31 3.16 1.04 4.39 2.21 1.22 1.16 1.83 2.79 1.83 4.9 0 1.61-.46 3.04-1.39 4.29s-2.22 2.24-3.88 2.95-3.61 1.07-5.87 1.07zm6.36-17.59h2.97c1.39 0 2.51-.3 3.34-.91.84-.6 1.25-1.49 1.25-2.67 0-1.08-.39-1.9-1.16-2.44q-1.155-.81-3.3-.81h-3.11v6.82Zm0 12.76h2.97c1.55 0 2.84-.31 3.88-.93s1.56-1.66 1.56-3.11-.53-2.44-1.6-3.04-2.39-.91-3.97-.91h-2.83v7.98ZM161.59 292.99v-29.25h6.36v11.61h11.1v-11.61h6.36v29.25h-6.36v-12.63h-11.1v12.63zM189.21 292.99l10.91-29.25h6.59l10.82 29.25h-6.73l-2.27-6.73h-10.4l-2.27 6.73h-6.64Zm10.36-11.42H207l-1.35-3.9c-.4-1.18-.8-2.41-1.18-3.71-.39-1.3-.75-2.52-1.09-3.67h-.09c-.31 1.15-.67 2.34-1.09 3.6s-.84 2.51-1.28 3.78zM221.43 292.99v-29.25h5.8l8.12 11.98c.99 1.46 1.95 2.97 2.88 4.55s1.64 3 2.14 4.27h.09c-.12-1.64-.2-3.3-.23-4.99s-.05-3.37-.05-5.04v-10.77h5.94v29.25h-5.8l-8.4-12.07c-.96-1.39-1.84-2.83-2.65-4.32s-1.52-3.03-2.14-4.64h-.09c.15 1.76.24 3.48.26 5.15s.02 3.37.02 5.11v10.77h-5.9ZM266.6 293.45c-2.88 0-5.49-.58-7.82-1.74a13.3 13.3 0 0 1-5.55-5.08q-2.04-3.345-2.04-8.22c0-4.875.68-6.05 2.04-8.31s3.2-3.98 5.52-5.15c2.32-1.18 4.94-1.76 7.85-1.76 1.79 0 3.4.16 4.83.46 1.42.31 2.71.73 3.85 1.25l-1.35 4.32c-1.05-.53-2.16-.91-3.32-1.14s-2.3-.35-3.41-.35c-1.67 0-3.21.36-4.62 1.09s-2.54 1.88-3.39 3.46-1.28 3.62-1.28 6.13c0 3.37.76 5.97 2.27 7.78 1.52 1.81 3.67 2.72 6.45 2.72q2.325 0 3.57-.51v-6.78h-4.83v-4.74h10.91v14.81c-1.21.5-2.62.91-4.22 1.25-1.61.34-3.44.51-5.48.51ZM279.27 292.99l10.91-29.25h6.59l10.82 29.25h-6.73l-2.27-6.73h-10.4l-2.27 6.73h-6.64Zm10.36-11.42h7.43l-1.35-3.9c-.4-1.18-.8-2.41-1.18-3.71-.39-1.3-.75-2.52-1.09-3.67h-.09c-.31 1.15-.67 2.34-1.09 3.6s-.84 2.51-1.28 3.78zM311.49 292.99v-29.25h11.1c2.2 0 4.03.4 5.5 1.21s2.58 1.89 3.34 3.25 1.14 2.89 1.14 4.6c0 1.58-.3 2.92-.91 4.02-.6 1.1-1.34 2-2.21 2.69-.87.7-1.72 1.21-2.55 1.56l7.2 11.93h-7.29l-5.62-10.77h-3.39V293h-6.31Zm6.31-15.64h2.46c1.67 0 3.05-.36 4.13-1.07q1.62-1.065 1.62-3.39c0-1.36-.43-2.42-1.3-3.18s-2.12-1.14-3.76-1.14h-3.16v8.77ZM166.93 360.99v-24.23h-8.12v-5.01h22.75v5.01h-8.26v24.23h-6.36ZM197.29 361.45c-2.75 0-5.22-.59-7.4-1.76q-3.27-1.77-5.13-5.13t-1.86-8.19c0-4.83.63-5.83 1.9-8.1q1.905-3.405 5.22-5.25c2.21-1.22 4.7-1.83 7.45-1.83s5.26.6 7.43 1.79 3.87 2.92 5.11 5.18q1.86 3.39 1.86 8.22c0 4.83-.63 5.82-1.9 8.08s-3 3.99-5.2 5.2-4.69 1.81-7.47 1.81Zm.19-4.82c1.42 0 2.72-.37 3.88-1.11s2.08-1.87 2.76-3.39q1.02-2.28 1.02-5.76c0-3.48-.36-4.34-1.07-5.87s-1.66-2.66-2.83-3.39c-1.18-.73-2.49-1.09-3.95-1.09s-2.72.38-3.88 1.14-2.08 1.9-2.76 3.44c-.68 1.53-1.02 3.46-1.02 5.78s.36 4.24 1.07 5.76q1.065 2.28 2.85 3.39c1.785 1.11 2.5 1.11 3.92 1.11ZM216.97 360.99v-29.25h6.36v29.25zM229.79 360.99v-29.25h6.36v24.23h11.79v5.01h-18.15ZM251.51 360.99v-29.25h19.03v4.92h-12.67v6.69h11.47v4.87h-11.47v7.85h12.81v4.92zM280.9 360.99v-24.23h-8.12v-5.01h22.75v5.01h-8.26v24.23h-6.36ZM161.31 428.99l2.14-29.25h7.98l3.9 12.35c.4 1.15.83 2.53 1.28 4.15s.8 3.15 1.04 4.57h.19c.19-.99.42-2.04.7-3.16q.42-1.665.84-3.18c.28-1 .51-1.8.7-2.39l3.81-12.35h7.98l2.23 29.25h-6.04l-.65-11.33c-.06-1.18-.12-2.46-.19-3.85-.06-1.39-.1-2.79-.12-4.18s-.02-2.68-.02-3.85h-.09c-.4 1.89-.89 3.86-1.46 5.92q-.855 3.09-1.65 5.55l-3.71 11.75h-4.97l-3.81-11.75c-.56-1.7-1.09-3.56-1.6-5.57s-.97-3.98-1.37-5.9h-.14c.03 1.21.02 2.54-.02 3.99-.05 1.46-.1 2.87-.16 4.25s-.12 2.59-.19 3.64l-.65 11.33h-5.94ZM200.31 428.99v-29.25h19.03v4.92h-12.67v6.69h11.47v4.87h-11.47v7.85h12.81v4.92zM224.36 428.99v-29.25h11.1c2.2 0 4.03.4 5.5 1.21s2.58 1.89 3.34 3.25 1.14 2.89 1.14 4.6c0 1.58-.3 2.92-.91 4.02-.6 1.1-1.34 2-2.21 2.69-.87.7-1.72 1.21-2.55 1.56l7.2 11.93h-7.29l-5.62-10.77h-3.39V429h-6.31Zm6.31-15.64h2.46c1.67 0 3.05-.36 4.13-1.07q1.62-1.065 1.62-3.39c0-1.36-.43-2.42-1.3-3.18s-2.12-1.14-3.76-1.14h-3.16v8.77ZM264.65 429.45c-2.94 0-5.55-.61-7.82-1.83s-4.06-2.96-5.36-5.22-1.95-4.95-1.95-8.08.63-5.77 1.88-8.03 3.02-4.01 5.32-5.25c2.29-1.24 4.98-1.86 8.08-1.86 2.01 0 3.66.19 4.94.56s2.33.77 3.13 1.21l-1.44 4.69c-.81-.43-1.7-.8-2.69-1.09s-2.09-.44-3.3-.44c-1.67 0-3.2.34-4.6 1.02-1.39.68-2.51 1.76-3.34 3.25-.84 1.49-1.25 3.45-1.25 5.9s.4 4.29 1.21 5.8c.8 1.52 1.9 2.64 3.27 3.37 1.38.73 2.92 1.09 4.62 1.09 1.42 0 2.62-.12 3.6-.37s1.83-.57 2.58-.97l1.25 4.64c-.74.4-1.79.77-3.13 1.11-1.35.34-3.01.51-4.99.51ZM277.23 428.99v-29.25h6.36v11.61h11.1v-11.61h6.36v29.25h-6.36v-12.63h-11.1v12.63zM304.85 428.99l10.91-29.25h6.59l10.82 29.25h-6.73l-2.27-6.73h-10.4l-2.27 6.73h-6.64Zm10.35-11.42h7.43l-1.35-3.9c-.4-1.18-.8-2.41-1.18-3.71-.39-1.3-.75-2.52-1.09-3.67h-.09c-.31 1.15-.67 2.34-1.09 3.6s-.84 2.51-1.28 3.78zM337.07 428.99v-29.25h5.8l8.12 11.98c.99 1.46 1.95 2.97 2.88 4.55s1.64 3 2.14 4.27h.09c-.12-1.64-.2-3.3-.23-4.99s-.05-3.37-.05-5.04v-10.77h5.94v29.25h-5.8l-8.4-12.07c-.96-1.39-1.84-2.83-2.65-4.32s-1.52-3.03-2.14-4.64h-.09c.15 1.76.24 3.48.26 5.15s.02 3.37.02 5.11v10.77h-5.9ZM368.22 428.99v-29.25h10.21q4.5 0 7.92 1.56c2.27 1.04 4.05 2.59 5.32 4.67 1.27 2.07 1.9 4.66 1.9 7.75 0 2.63-.43 4.91-1.28 6.85-.85 1.93-2.04 3.52-3.55 4.76q-2.28 1.86-5.25 2.76c-1.98.6-4.1.91-6.36.91h-8.91Zm6.36-4.92h2.14c1.76 0 3.41-.3 4.94-.91s2.78-1.66 3.74-3.16 1.44-3.6 1.44-6.29c0-2.94-.84-5.18-2.51-6.73s-3.92-2.32-6.73-2.32h-3.02v19.4ZM398.58 428.99v-29.25h6.36v29.25zM420.12 429.45c-3.5 0-6.72-.71-9.66-2.14l1.44-4.73c1.33.65 2.64 1.15 3.92 1.51s2.61.53 3.97.53c1.64 0 2.89-.3 3.74-.91.85-.6 1.28-1.43 1.28-2.48 0-.77-.32-1.49-.97-2.14s-2-1.3-4.04-1.95l-2.41-.79c-1.46-.53-2.73-1.14-3.83-1.86-1.1-.71-1.96-1.59-2.58-2.65q-.93-1.575-.93-3.9c0-2.57.94-4.67 2.81-6.31q2.805-2.46 8.01-2.46c1.86 0 3.52.19 4.99.56s2.76.87 3.88 1.49l-1.44 4.73c-1.24-.62-2.45-1.1-3.62-1.44-1.18-.34-2.32-.51-3.44-.51-1.52 0-2.69.3-3.5.91-.82.6-1.23 1.4-1.23 2.39s.37 1.79 1.11 2.3 1.87 1.03 3.39 1.56l2.79.88c2.29.77 4.11 1.87 5.45 3.3 1.35 1.42 2.02 3.16 2.02 5.2 0 1.64-.42 3.14-1.25 4.5-.84 1.36-2.08 2.44-3.74 3.23s-3.71 1.18-6.15 1.18ZM436.32 428.99v-29.25h19.03v4.92h-12.67v6.69h11.47v4.87h-11.47v7.85h12.81v4.92zM161.59 496.99v-29.25h6.36v29.25zM188.15 497.45c-2.94 0-5.55-.61-7.82-1.83s-4.06-2.96-5.36-5.22-1.95-4.95-1.95-8.08.63-5.77 1.88-8.03 3.02-4.01 5.32-5.25c2.29-1.24 4.98-1.86 8.08-1.86 2.01 0 3.66.19 4.94.56s2.33.77 3.13 1.21l-1.44 4.69c-.81-.43-1.7-.8-2.69-1.09s-2.09-.44-3.3-.44c-1.67 0-3.2.34-4.6 1.02-1.39.68-2.51 1.76-3.34 3.25-.84 1.49-1.25 3.45-1.25 5.9s.4 4.29 1.21 5.8c.8 1.52 1.9 2.64 3.27 3.37 1.38.73 2.92 1.09 4.62 1.09 1.42 0 2.62-.12 3.6-.37s1.83-.57 2.58-.97l1.25 4.64c-.74.4-1.79.77-3.13 1.11-1.35.34-3.01.51-4.99.51ZM200.73 496.99v-29.25h19.03v4.92h-12.67v6.69h11.47v4.87h-11.47v7.85h12.81v4.92zM249.19 497.45c-2.94 0-5.55-.61-7.82-1.83s-4.06-2.96-5.36-5.22-1.95-4.95-1.95-8.08.63-5.77 1.88-8.03 3.02-4.01 5.32-5.25c2.29-1.24 4.98-1.86 8.08-1.86 2.01 0 3.66.19 4.94.56s2.33.77 3.13 1.21l-1.44 4.69c-.81-.43-1.7-.8-2.69-1.09s-2.09-.44-3.3-.44c-1.67 0-3.2.34-4.6 1.02-1.39.68-2.51 1.76-3.34 3.25-.84 1.49-1.25 3.45-1.25 5.9s.4 4.29 1.21 5.8c.8 1.52 1.9 2.64 3.27 3.37 1.38.73 2.92 1.09 4.62 1.09 1.42 0 2.62-.12 3.6-.37s1.83-.57 2.58-.97l1.25 4.64c-.74.4-1.79.77-3.13 1.11-1.35.34-3.01.51-4.99.51ZM261.77 496.99v-29.25h11.1c2.2 0 4.03.4 5.5 1.21s2.58 1.89 3.34 3.25 1.14 2.89 1.14 4.6c0 1.58-.3 2.92-.91 4.02-.6 1.1-1.34 2-2.21 2.69-.87.7-1.72 1.21-2.55 1.56l7.2 11.93h-7.29l-5.62-10.77h-3.39V497h-6.31Zm6.32-15.64h2.46c1.67 0 3.05-.36 4.13-1.07q1.62-1.065 1.62-3.39c0-1.36-.43-2.42-1.3-3.18s-2.12-1.14-3.76-1.14h-3.16v8.77ZM288.33 496.99v-29.25h19.03v4.92h-12.67v6.69h11.47v4.87h-11.47v7.85h12.81v4.92zM309.73 496.99l10.91-29.25h6.59l10.82 29.25h-6.73l-2.27-6.73h-10.4l-2.27 6.73h-6.64Zm10.35-11.42h7.43l-1.35-3.9c-.4-1.18-.8-2.41-1.18-3.71-.39-1.3-.75-2.52-1.09-3.67h-.09c-.31 1.15-.67 2.34-1.09 3.6s-.84 2.51-1.28 3.78zM341.66 496.99l2.14-29.25h7.98l3.9 12.35c.4 1.15.83 2.53 1.28 4.15s.8 3.15 1.04 4.57h.19c.19-.99.42-2.04.7-3.16q.42-1.665.84-3.18c.28-1 .51-1.8.7-2.39l3.81-12.35h7.98l2.23 29.25h-6.04l-.65-11.33c-.06-1.18-.12-2.46-.19-3.85-.06-1.39-.1-2.79-.12-4.18s-.02-2.68-.02-3.85h-.09c-.4 1.89-.89 3.86-1.46 5.92q-.855 3.09-1.65 5.55l-3.71 11.75h-4.97l-3.81-11.75c-.56-1.7-1.09-3.56-1.6-5.57s-.97-3.98-1.37-5.9h-.14c.03 1.21.02 2.54-.02 3.99-.05 1.46-.1 2.87-.16 4.25s-.12 2.59-.19 3.64l-.65 11.33h-5.94ZM161.59 564.99v-29.25h18.57v4.92h-12.21v7.71h11.19v4.87h-11.19v11.75zM197.43 565.45c-2.75 0-5.22-.59-7.4-1.76q-3.27-1.77-5.13-5.13t-1.86-8.19c0-4.83.63-5.83 1.9-8.1q1.905-3.405 5.22-5.25c2.21-1.22 4.7-1.83 7.45-1.83s5.26.6 7.43 1.79 3.87 2.92 5.11 5.18q1.86 3.39 1.86 8.22c0 4.83-.63 5.82-1.9 8.08s-3 3.99-5.2 5.2-4.69 1.81-7.47 1.81Zm.19-4.82c1.42 0 2.72-.37 3.88-1.11s2.08-1.87 2.76-3.39q1.02-2.28 1.02-5.76c0-3.48-.36-4.34-1.07-5.87s-1.66-2.66-2.83-3.39c-1.18-.73-2.49-1.09-3.95-1.09s-2.72.38-3.88 1.14-2.08 1.9-2.76 3.44c-.68 1.53-1.02 3.46-1.02 5.78s.36 4.24 1.07 5.76q1.065 2.28 2.85 3.39c1.785 1.11 2.5 1.11 3.92 1.11ZM230.11 565.45c-2.75 0-5.22-.59-7.4-1.76q-3.27-1.77-5.13-5.13t-1.86-8.19c0-4.83.63-5.83 1.9-8.1q1.905-3.405 5.22-5.25c2.21-1.22 4.7-1.83 7.45-1.83s5.26.6 7.43 1.79 3.87 2.92 5.11 5.18q1.86 3.39 1.86 8.22c0 4.83-.63 5.82-1.9 8.08s-3 3.99-5.2 5.2-4.69 1.81-7.47 1.81Zm.19-4.82c1.42 0 2.72-.37 3.88-1.11s2.08-1.87 2.76-3.39q1.02-2.28 1.02-5.76c0-3.48-.36-4.34-1.07-5.87s-1.66-2.66-2.83-3.39c-1.18-.73-2.49-1.09-3.95-1.09s-2.72.38-3.88 1.14-2.08 1.9-2.76 3.44c-.68 1.53-1.02 3.46-1.02 5.78s.36 4.24 1.07 5.76q1.065 2.28 2.85 3.39c1.785 1.11 2.5 1.11 3.92 1.11ZM249.8 564.99v-29.25h10.21q4.5 0 7.92 1.56c2.27 1.04 4.05 2.59 5.32 4.67 1.27 2.07 1.9 4.66 1.9 7.75 0 2.63-.43 4.91-1.28 6.85-.85 1.93-2.04 3.52-3.55 4.76q-2.28 1.86-5.25 2.76c-1.98.6-4.1.91-6.36.91h-8.91Zm6.36-4.92h2.14c1.76 0 3.41-.3 4.94-.91s2.78-1.66 3.74-3.16 1.44-3.6 1.44-6.29c0-2.94-.84-5.18-2.51-6.73s-3.92-2.32-6.73-2.32h-3.02v19.4ZM161.59 632.99v-29.25h10.45c3.06 0 5.49.67 7.29 2.02s2.69 3.21 2.69 5.59c0 1.18-.26 2.2-.79 3.06-.53.87-1.2 1.55-2.02 2.07-.82.51-1.66.88-2.53 1.09 1.7.31 3.16 1.04 4.39 2.21 1.22 1.16 1.83 2.79 1.83 4.9 0 1.61-.46 3.04-1.39 4.29s-2.22 2.24-3.88 2.95-3.61 1.07-5.87 1.07zm6.36-17.59h2.97c1.39 0 2.51-.3 3.34-.91.84-.6 1.25-1.49 1.25-2.67 0-1.08-.39-1.9-1.16-2.44q-1.155-.81-3.3-.81h-3.11v6.82Zm0 12.76h2.97c1.55 0 2.84-.31 3.88-.93s1.56-1.66 1.56-3.11-.53-2.44-1.6-3.04-2.39-.91-3.97-.91h-2.83v7.98ZM184.71 632.99l10.91-29.25h6.59l10.82 29.25h-6.73l-2.27-6.73h-10.4l-2.27 6.73h-6.64Zm10.35-11.42h7.43l-1.35-3.9c-.4-1.18-.8-2.41-1.18-3.71-.39-1.3-.75-2.52-1.09-3.67h-.09c-.31 1.15-.67 2.34-1.09 3.6s-.84 2.51-1.28 3.78zM216.93 632.99v-29.25h11.1c2.2 0 4.03.4 5.5 1.21s2.58 1.89 3.34 3.25 1.14 2.89 1.14 4.6c0 1.58-.3 2.92-.91 4.02-.6 1.1-1.34 2-2.21 2.69-.87.7-1.72 1.21-2.55 1.56l7.2 11.93h-7.29l-5.62-10.77h-3.39V633h-6.31Zm6.31-15.64h2.46c1.67 0 3.05-.36 4.13-1.07q1.62-1.065 1.62-3.39c0-1.36-.43-2.42-1.3-3.18s-2.12-1.14-3.76-1.14h-3.16v8.77ZM161.59 700.99v-29.25h18.57v4.92h-12.21v7.71h11.19v4.87h-11.19v11.75zM184.66 700.99v-29.25h6.36v29.25zM197.48 700.99v-29.25h11.1c2.2 0 4.03.4 5.5 1.21 1.47.8 2.58 1.89 3.34 3.25s1.14 2.89 1.14 4.6c0 1.58-.3 2.92-.91 4.02-.6 1.1-1.34 2-2.21 2.69-.87.7-1.72 1.21-2.55 1.55l7.2 11.93h-7.29l-5.62-10.77h-3.39v10.77zm6.31-15.65h2.46c1.67 0 3.05-.36 4.13-1.07q1.62-1.065 1.62-3.39c0-1.36-.43-2.42-1.3-3.18s-2.12-1.14-3.76-1.14h-3.16v8.77ZM232.76 701.45q-5.25 0-9.66-2.13l1.44-4.74c1.33.65 2.64 1.15 3.92 1.51s2.61.53 3.97.53c1.64 0 2.89-.3 3.74-.91.85-.6 1.28-1.43 1.28-2.48 0-.77-.32-1.49-.97-2.13-.65-.65-2-1.3-4.04-1.95l-2.41-.79c-1.46-.53-2.73-1.14-3.83-1.86-1.1-.71-1.96-1.59-2.58-2.65q-.93-1.575-.93-3.9c0-2.57.94-4.67 2.81-6.31q2.805-2.46 8.01-2.46c1.86 0 3.52.19 4.99.56s2.76.87 3.88 1.49l-1.44 4.74c-1.24-.62-2.45-1.1-3.62-1.44-1.18-.34-2.32-.51-3.44-.51-1.52 0-2.69.3-3.5.91-.82.6-1.23 1.4-1.23 2.39s.37 1.79 1.11 2.3 1.87 1.03 3.39 1.56l2.79.88c2.29.77 4.11 1.87 5.45 3.3 1.35 1.42 2.02 3.16 2.02 5.2 0 1.64-.42 3.14-1.25 4.5-.84 1.36-2.08 2.44-3.74 3.23s-3.71 1.18-6.15 1.18ZM254.11 700.99v-24.23h-8.12v-5.01h22.75v5.01h-8.26v24.23h-6.36ZM280.43 700.99l10.91-29.25h6.59l10.82 29.25h-6.73l-2.27-6.73h-10.4l-2.27 6.73h-6.64Zm10.35-11.42h7.43l-1.35-3.9c-.4-1.18-.8-2.41-1.18-3.71-.39-1.3-.75-2.52-1.09-3.67h-.09c-.31 1.15-.67 2.34-1.09 3.6-.42 1.25-.84 2.51-1.28 3.78zM312.65 700.99v-29.25h6.36v29.25zM325.46 700.99v-29.25h10.21c3 0 5.64.52 7.92 1.55 2.27 1.04 4.05 2.59 5.32 4.67s1.9 4.66 1.9 7.75c0 2.63-.43 4.91-1.28 6.85-.85 1.93-2.04 3.52-3.55 4.76q-2.28 1.86-5.25 2.76c-1.98.6-4.1.91-6.36.91zm6.36-4.92h2.14c1.76 0 3.41-.3 4.94-.91s2.78-1.66 3.74-3.16 1.44-3.6 1.44-6.29c0-2.94-.84-5.18-2.51-6.73s-3.92-2.32-6.73-2.32h-3.02v19.4ZM161.59 768.99v-29.25h6.36v24.23h11.79v5.01h-18.15ZM195.62 769.45c-2.75 0-5.22-.59-7.4-1.76q-3.27-1.77-5.13-5.13t-1.86-8.19c0-4.83.63-5.83 1.9-8.1 1.27-2.28 3.01-4.02 5.22-5.25 2.21-1.22 4.7-1.83 7.45-1.83s5.26.6 7.43 1.79 3.87 2.92 5.11 5.18q1.86 3.39 1.86 8.22c0 4.83-.63 5.82-1.9 8.08s-3 3.99-5.2 5.2-4.69 1.81-7.47 1.81Zm.19-4.82c1.42 0 2.72-.37 3.88-1.11q1.74-1.11 2.76-3.39c.68-1.52 1.02-3.43 1.02-5.76s-.36-4.34-1.07-5.87-1.66-2.66-2.83-3.39c-1.18-.73-2.49-1.09-3.95-1.09s-2.72.38-3.88 1.14-2.08 1.9-2.76 3.44c-.68 1.53-1.02 3.46-1.02 5.78s.36 4.24 1.07 5.76q1.065 2.28 2.85 3.39c1.19.74 2.5 1.11 3.92 1.11ZM229.04 769.45c-2.94 0-5.55-.61-7.82-1.83s-4.06-2.96-5.36-5.22-1.95-4.95-1.95-8.08.63-5.77 1.88-8.03 3.02-4.01 5.32-5.25c2.29-1.24 4.98-1.86 8.08-1.86 2.01 0 3.66.19 4.94.56s2.33.77 3.13 1.21l-1.44 4.69c-.81-.43-1.7-.8-2.69-1.09s-2.09-.44-3.3-.44c-1.67 0-3.2.34-4.6 1.02-1.39.68-2.51 1.76-3.34 3.25-.84 1.49-1.25 3.45-1.25 5.9s.4 4.29 1.21 5.8c.8 1.52 1.9 2.64 3.27 3.37 1.38.73 2.92 1.09 4.62 1.09 1.42 0 2.62-.12 3.6-.37s1.83-.57 2.58-.97l1.25 4.64c-.74.4-1.79.77-3.13 1.11-1.35.34-3.01.51-4.99.51ZM241.63 768.99v-29.25h6.36V752l10.03-12.26h7.89L255 752.46l11.84 16.53h-7.8l-8.68-12.53-2.37 2.6v9.93zM270.04 768.99v-29.25h19.03v4.92H276.4v6.68h11.47v4.87H276.4v7.85h12.81v4.92h-19.17ZM294.08 768.99v-29.25h11.1c2.2 0 4.03.4 5.5 1.21 1.47.8 2.58 1.89 3.34 3.25s1.14 2.89 1.14 4.6c0 1.58-.3 2.92-.91 4.02-.6 1.1-1.34 2-2.21 2.69-.87.7-1.72 1.21-2.55 1.55l7.2 11.93h-7.29l-5.62-10.77h-3.39v10.77zm6.32-15.65h2.46c1.67 0 3.05-.36 4.13-1.07q1.62-1.065 1.62-3.39c0-1.36-.43-2.42-1.3-3.18s-2.12-1.14-3.76-1.14h-3.16v8.77ZM93.79 88.99V66.75l-5.15 2.46-1.35-4.46 7.47-3.39h4.87v27.62h-5.85ZM87.9 156.99l-1.07-3.95 4.04-3.95c2.72-2.66 4.68-4.91 5.87-6.75s1.79-3.47 1.79-4.9-.33-2.38-1-3.06-1.54-1.02-2.62-1.02c-1.7 0-3.45.71-5.25 2.14l-2.41-3.71c1.11-.93 2.34-1.65 3.67-2.16s2.92-.77 4.78-.77c2.75 0 4.92.76 6.5 2.27q2.37 2.28 2.37 5.85 0 2.88-2.07 6.06c-1.38 2.12-3.35 4.37-5.92 6.75l-2.69 2.6h11v4.6zM94.4 225.45c-1.49 0-2.89-.16-4.22-.46-1.33-.31-2.49-.71-3.48-1.21l1.3-4.18c.9.4 1.77.73 2.62.98s1.82.37 2.9.37c1.55 0 2.79-.32 3.74-.95.94-.63 1.42-1.57 1.42-2.81s-.43-2.16-1.3-2.85c-.87-.7-2.17-1.04-3.9-1.04h-3.16v-4.36h2.27c1.64 0 2.92-.35 3.83-1.07.91-.71 1.37-1.7 1.37-2.97 0-1.18-.39-2.07-1.16-2.67s-1.72-.91-2.83-.91c-1.55 0-3.08.5-4.6 1.49l-1.86-3.95c2.07-1.33 4.58-2 7.52-2 1.79 0 3.36.33 4.69.98s2.37 1.52 3.11 2.62 1.11 2.33 1.11 3.69c0 1.73-.45 3.13-1.35 4.18a8.6 8.6 0 0 1-3.25 2.37q2.46.555 4.02 2.34c1.04 1.19 1.56 2.61 1.56 4.25 0 1.89-.46 3.44-1.39 4.64-.93 1.21-2.17 2.1-3.74 2.67-1.56.57-3.3.86-5.22.86ZM98.9 292.99v-6.36H86.09v-3.76l11.56-17.5h6.92v16.71h3.99v4.55h-3.99v6.36h-5.66Zm-6.73-10.91h6.73v-5.8l.23-5.71h-.09l-2.55 4.92zM74.94 360.99l-6.17-22.19h6.45l2.79 11.74.84 5.85h.19l1.02-5.85 2.74-11.74h6.5l2.79 11.74.97 5.85h.19l.93-5.85 2.74-11.74h6.27l-6.08 22.19h-7.24l-2.88-11.98-.98-5.39-.97 5.39-2.88 11.98h-7.2ZM116.81 361.45c-2.23 0-4.24-.43-6.03-1.3a10.06 10.06 0 0 1-4.27-3.85c-1.05-1.7-1.58-3.81-1.58-6.31 0-2.32.5-4.36 1.51-6.1 1.01-1.75 2.41-3.11 4.22-4.08 1.81-.98 3.89-1.46 6.24-1.46.96 0 1.98.09 3.06.28s2.21.59 3.39 1.21l-1.35 4.32c-.65-.4-1.35-.72-2.11-.95s-1.52-.35-2.3-.35c-1.89 0-3.43.59-4.62 1.76-1.19 1.18-1.79 2.91-1.79 5.2 0 1.76.32 3.17.97 4.2.65 1.04 1.48 1.78 2.48 2.23s2.03.67 3.09.67c.99 0 1.86-.13 2.62-.4q1.14-.39 1.83-.72l1.16 4.22c-.59.34-1.47.67-2.65.98s-2.48.46-3.9.46ZM84.89 407.38l-3.25 1.77c-.48.27-.99.35-1.52.23s-.9-.4-1.11-.84l-3.56-6.03c-.28-.47-.35-.88-.23-1.22s.4-.64.85-.91l11.76-6.73h3.3q.57 0 .9.33c.33.33.34.51.34.89v.76c0 1.28.41 2.33 1.24 3.14s1.89 1.22 3.2 1.22 2.36-.41 3.17-1.22 1.21-1.86 1.21-3.14v-.76c0-.37.11-.67.34-.89s.52-.33.9-.33h3.3l11.76 6.73c.45.27.72.57.83.91s.03.74-.21 1.22l-3.61 6.03c-.21.44-.64.73-1.29.86s-1.17.08-1.55-.15l-3.2-1.97v20.86c0 .54-.21 1-.62 1.39s-.89.58-1.44.58H86.91c-.55 0-1.02-.19-1.42-.58s-.59-.85-.59-1.39v-20.76Zm3.09-5.17v24.86h17.38v-24.86l7.12 3.9 2.32-3.95-9.64-5.42h-.93c-.28 1.82-1.09 3.33-2.45 4.51q-2.04 1.77-4.98 1.77c-2.94 0-3.63-.59-5-1.77s-2.2-2.68-2.48-4.51h-.93l-9.64 5.42 2.32 3.95zM96.7 498l-10.04-20.05c-2.55.44-4.84-.11-6.85-1.63-2.02-1.53-3.02-3.65-3.02-6.37 0-1.63.51-3.23 1.53-4.79s2.51-2.62 4.47-3.16c.59-3.6 2.23-6.48 4.91-8.66s5.71-3.27 9.07-3.27 6.38 1.09 9.04 3.27 4.31 5.07 4.94 8.66c1.96.54 3.45 1.6 4.47 3.16s1.53 3.16 1.53 4.79c0 2.72-1.05 4.85-3.14 6.37-2.09 1.53-4.3 2.07-6.63 1.63L96.71 498Zm-11.82-23.15c.67 0 1.29-.09 1.89-.27s1.05-.44 1.39-.76l1.44-1.47 1.28 1.09c.92.62 1.93 1.01 3.02 1.17s2.1.25 3.02.25 1.87-.08 2.83-.25 1.91-.55 2.83-1.17l1.33-1.09 1.39 1.47c.33.33.8.58 1.41.76s1.23.27 1.86.27q1.89 0 3.36-1.5c.98-1 1.47-2.13 1.47-3.41q0-1.695-1.05-2.94c-1.05-1.245-1.7-1.36-3-1.58l-1.94-.27-.11-2.12c-.41-2.87-1.54-5.2-3.41-7s-4.24-2.7-7.13-2.7-5.27.9-7.16 2.7-3.01 4.13-3.38 7l-.17 2.12-1.94.44c-1.11.29-2.05.81-2.83 1.55s-1.17 1.68-1.17 2.81c0 1.27.49 2.41 1.47 3.41s2.08 1.5 3.3 1.5Zm11.82 15.74 7.1-13.73-.33-.33c-1.04.54-2.15.94-3.36 1.2s-2.27.38-3.19.38c-1.18 0-2.39-.13-3.61-.38s-2.29-.65-3.22-1.2l-.33.27 6.94 13.78ZM88.65 568.28v-16.74c-1.61-.33-2.97-1.13-4.1-2.39s-1.69-2.77-1.69-4.53v-12.74h2.78v12.74h3.01v-12.74h2.78v12.74h3.01v-12.74h2.78v12.74c0 1.76-.56 3.27-1.69 4.53s-2.49 2.05-4.1 2.39v16.74zm19.23 0v-14.56h-5.33v-13.88c0-2.4.74-4.32 2.22-5.78s3.44-2.18 5.88-2.18v36.4h-2.78ZM84.99 632.19v-2.89h10.3v-11.75l-16.18-17.14v-2.89h35.3v2.89l-16.18 17.14v11.75h10.3v2.89H85ZM87 604.51h19.51l4.07-3.9H82.93zm9.76 10.4 7.06-7.51H89.7zM85.8 770.19c-.7 0-1.29-.25-1.79-.74-.5-.5-.74-1.09-.74-1.79v-18.29c0-.7.25-1.29.74-1.79.5-.5 1.09-.74 1.79-.74h2.95v-4.05c0-2.22.78-4.1 2.34-5.66q2.34-2.34 5.67-2.34c3.33 0 4.1.78 5.66 2.34s2.34 3.45 2.34 5.66v4.05h2.95c.7 0 1.29.25 1.79.74.5.5.74 1.09.74 1.79v18.29c0 .7-.25 1.29-.74 1.79-.5.5-1.09.74-1.79.74zm0-2.53h21.91v-18.29H85.8zm10.96-5.9c.89 0 1.66-.31 2.29-.93s.95-1.36.95-2.23-.32-1.61-.96-2.3-1.4-1.03-2.3-1.03-1.66.34-2.29 1.03-.95 1.46-.95 2.32.32 1.59.96 2.21 1.4.93 2.3.93m-5.48-14.92h10.96v-4.05c0-1.52-.53-2.82-1.6-3.88-1.06-1.07-2.36-1.6-3.88-1.6s-2.81.53-3.88 1.6-1.6 2.36-1.6 3.88zm-5.48 20.82v-18.29zM95.54 688.97h3.36v-4.2h4.2v-3.36h-4.2v-4.2h-3.36v4.2h-4.2v3.36h4.2zm1.68 11.72c-3.92-.98-7.14-3.25-9.66-6.82s-3.78-7.48-3.78-11.74v-9.99l13.44-5.04 13.44 5.04v9.99c0 4.25-1.26 8.17-3.78 11.74s-5.74 5.84-9.66 6.82m0-2.61c3.22-1.06 5.84-3.07 7.87-6.03 2.03-2.95 3.04-6.26 3.04-9.93v-8.23l-10.92-4.12-10.92 4.12v8.23c0 3.67 1.01 6.98 3.04 9.93s4.65 4.96 7.87 6.03Z" class="st0"/></g></svg>